<svg xmlns="http://www.w3.org/2000/svg" width="44" height="44" viewBox="0 0 44 44">
    <g fill="none" fill-rule="evenodd">
        <path fill="#FED014" d="M38 22c0 8.837-7.163 16-16 16S6 30.837 6 22 13.163 6 22 6s16 7.163 16 16"/>
        <path fill="#00377E" d="M41.964 28.61a1.004 1.004 0 0 0-1.293.573C37.72 36.85 30.217 42 22 42 10.972 42 2 33.028 2 22 2 10.971 10.972 2 22 2c8.217 0 15.72 5.15 18.67 12.815a1 1 0 1 0 1.867-.719C39.293 5.666 31.038 0 22 0 9.869 0 0 9.87 0 22s9.869 22 22 22c9.038 0 17.29-5.665 20.538-14.098a1 1 0 0 0-.574-1.293zm.642-7.61H19.098l3.293-3.293a.999.999 0 1 0-1.413-1.414l-5 4.999a1.006 1.006 0 0 0 0 1.416l5 4.999a.997.997 0 0 0 1.413 0 .999.999 0 0 0 0-1.414L19.1 23h23.506a1 1 0 1 0 0-2z"/>
    </g>
</svg>
